<svg id="Capa_1" data-name="Capa 1" xmlns="http://www.w3.org/2000/svg" xmlns:xlink="http://www.w3.org/1999/xlink" viewBox="0 0 1920 235"><defs><style>.cls-1{fill:none;}.cls-2{clip-path:url(#clip-path);}.cls-3{fill:#f93549;}.cls-4{fill:#ffb71b;}.cls-5{fill:#002a3a;}</style><clipPath id="clip-path"><rect class="cls-1" width="1920" height="254"/></clipPath></defs><g class="cls-2"><path class="cls-3" d="M733.54,82.68C672.2,70.3,577.06,58.49,466.11,78.33,307.77,106.66,270.77,172,111.33,212.43c-63.78,16.18-218.6,55.44-382.76-3.56-185.28-66.58-281-221.88-315.11-285C-510.77-59.75-396.3-43.26-260-58c177.07-19.15,203.81-70.79,379.68-92,98.15-11.83,293-41.75,456.94,73.85C662.7-15.43,709.47,32.76,733.54,82.68Z"/><path class="cls-4" d="M1765.54-33.82C1704.2-46.2,1609.06-58,1498.11-38.17,1339.77-9.84,1302.77,55.5,1143.33,95.93c-63.78,16.18-218.6,55.44-382.76-3.56-185.28-66.58-281-221.88-315.11-285C521.23-176.25,635.7-159.76,772-174.5c177.07-19.15,203.81-70.79,379.68-92,98.15-11.83,293-41.75,456.94,73.85C1694.7-131.93,1741.47-83.74,1765.54-33.82Z"/><path class="cls-5" d="M1186.46,82.68c61.34-12.38,156.48-24.19,267.43-4.35,158.34,28.33,195.34,93.67,354.78,134.1,63.78,16.18,218.6,55.44,382.76-3.56,185.28-66.58,281-221.88,315.11-285C2430.77-59.75,2316.3-43.26,2180-58c-177.07-19.15-203.81-70.79-379.68-92-98.15-11.83-293-41.75-456.94,73.85C1257.3-15.43,1210.53,32.76,1186.46,82.68Z"/></g></svg>